<svg viewBox="0 0 300 300" height="300" width="300" xmlns="http://www.w3.org/2000/svg">
  <defs>
    <style type="text/css">
      <![CDATA[
      @import url('https://fonts.googleapis.com/css2?family=Pacifico&display=swap');
      ]]>
    </style>
  </defs>
  <circle fill="black" r="150" cy="150" cx="150"></circle>
  <path fill="white" d="M128.187 100.858c1.027 0.753 1.474 2.1 1.958 3.233q0.117 0.271 0.234 0.542c0.927 2.15 1.802 4.322 2.684 6.491a414.125 414.125 0 0 0 1.522 3.681q0.363 0.87 0.727 1.739l0.408 0.976a2764.341 2764.341 0 0 0 3.229 7.696 1847.314 1847.314 0 0 1 2.058 4.905 1694.844 1694.844 0 0 0 2.585 6.144 1529.896 1529.896 0 0 1 2.394 5.698c0.749 1.792 1.503 3.583 2.26 5.373q1.208 2.857 2.405 5.719c1.051 2.514 2.11 5.025 3.171 7.535q0.553 1.309 1.105 2.618c1.178 2.794 2.361 5.587 3.56 8.372a679.029 679.029 0 0 1 0.439 1.022C162.573 181.66 162.573 181.66 168.198 189.515l0.281 0.306c3.344 3.537 8.298 4.761 13.015 4.915 2.029 0.051 4.067 0.061 6.072 -0.281q0.263 -0.039 0.526 -0.077c4.696 -0.715 8.841 -2.725 12.343 -5.903l0.285 -0.252c3.964 -3.708 6.168 -9.696 6.361 -15.021 0.04 -1.921 0.05 -3.779 -0.406 -5.654q-0.055 -0.258 -0.11 -0.517c-0.816 -3.719 -2.968 -7.531 -5.999 -9.882l-0.207 -0.165c-1.368 -1.09 -2.803 -1.998 -4.343 -2.825l-0.256 -0.14c-2.592 -1.398 -5.679 -2.344 -8.581 -2.804 -0.261 -0.046 -0.515 -0.107 -0.772 -0.171 -0.973 -0.221 -1.976 -0.296 -2.967 -0.403q-0.465 -0.051 -0.93 -0.102 -0.288 -0.032 -0.575 -0.063c-0.468 -0.051 -0.927 -0.116 -1.387 -0.217q-0.056 -0.863 -0.111 -1.727l-0.038 -0.587 -0.054 -0.847 -0.033 -0.514c-0.023 -0.466 -0.028 -0.929 -0.024 -1.395 0.984 -0.224 1.968 -0.342 2.971 -0.45 4.363 -0.48 8.901 -1.244 12.757 -3.45l0.374 -0.208c3.578 -2.119 6.267 -5.867 7.295 -9.878 0.655 -2.792 0.814 -5.809 0.259 -8.632l-0.051 -0.263c-0.711 -3.59 -2.496 -6.609 -5.019 -9.226l-0.233 -0.253c-4.285 -4.539 -11.554 -6.703 -17.63 -6.911 -1.014 -0.021 -2.028 -0.022 -3.042 -0.019 -0.441 0.002 -0.882 0.001 -1.324 -0.001 -3.721 -0.011 -7.495 0.084 -11.12 1.003C165.208 106.976 165.208 106.976 164.818 106.976l0.003 0.383c0.055 8.408 -0.025 16.811 -0.162 25.217q-0.023 1.395 -0.044 2.789 -0.03 1.914 -0.063 3.828 -0.012 0.708 -0.023 1.417c-0.037 2.33 -0.094 4.656 -0.22 6.982l-0.015 0.29c-0.05 0.946 -0.104 1.857 -0.384 2.768 -0.279 -0.279 -0.372 -0.481 -0.525 -0.841l-0.157 -0.369 -0.17 -0.405 -0.18 -0.423c-0.195 -0.461 -0.39 -0.921 -0.585 -1.382l-0.408 -0.963q-0.517 -1.219 -1.032 -2.439l-0.536 -1.268q-0.84 -1.985 -1.676 -3.971a1219.107 1219.107 0 0 0 -1.07 -2.529c-2.039 -4.809 -4.068 -9.625 -5.879 -14.526l-0.14 -0.376 -0.123 -0.334 -0.101 -0.274c-0.273 -0.806 -0.481 -1.597 -0.618 -2.437 -0.025 -0.151 -0.025 -0.151 -0.05 -0.305 -0.162 -1.029 -0.242 -2.061 -0.311 -3.1 -0.119 -1.767 -0.246 -3.525 -0.606 -5.262l-0.07 -0.375c-0.422 -1.795 -2.15 -3.734 -3.669 -4.678 -0.387 -0.196 -0.785 -0.313 -1.2 -0.438 -0.767 -0.291 -1.174 -1.108 -1.56 -1.788l-0.149 -0.243c-0.145 -0.36 -0.118 -0.672 -0.111 -1.057 1.962 -0.12 3.916 -0.149 5.881 -0.147q0.482 0 0.964 -0.001 1.164 -0.001 2.329 0 0.95 0 1.9 0h0.275l0.554 0q2.59 -0.001 5.181 0.001 2.205 0.001 4.409 0a8066.205 8066.205 0 0 1 5.708 -0.001h0.275q0.943 0 1.886 0c6.494 -0.003 6.494 -0.003 9.534 0.076l0.302 0.008c1.755 0.047 3.504 0.147 5.254 0.281 0.459 0.035 0.919 0.068 1.378 0.101 1.978 0.144 3.95 0.297 5.894 0.705 0.096 0.019 0.192 0.038 0.291 0.058 0.34 0.069 0.678 0.143 1.017 0.218l0.493 0.107c1.364 0.304 2.684 0.697 4.007 1.144l0.306 0.103c1.733 0.583 3.424 1.229 5.072 2.026l0.277 0.134c2.801 1.377 5.321 3.251 7.522 5.456l0.293 0.275c3.577 3.407 5.54 8.368 5.7 13.272 0.039 1.736 0.064 3.462 -0.274 5.171l-0.064 0.334c-1.06 5.511 -3.903 9.917 -8.385 13.314l-0.205 0.156c-1.719 1.301 -3.6 2.278 -5.514 3.26l-0.336 0.173 -0.298 0.153c-0.288 0.163 -0.545 0.332 -0.797 0.547v0.26l0.211 0.062a120.754 120.754 0 0 1 0.673 0.203q0.429 0.129 0.86 0.25c4.266 1.247 8.757 3.469 12.034 6.504l0.366 0.334c4.093 3.901 6.038 9.571 6.177 15.125 0.031 2.65 -0.368 5.294 -1.214 7.808l-0.107 0.32c-1.24 3.605 -3.139 6.647 -5.809 9.363a43.024 43.024 0 0 0 -0.487 0.506c-0.672 0.697 -1.413 1.303 -2.175 1.899l-0.225 0.179c-3.985 3.147 -8.686 5.324 -13.553 6.71l-0.309 0.089c-3.718 1.035 -7.678 1.469 -11.519 1.731l-0.267 0.019c-2.021 0.136 -4.045 0.136 -6.069 0.135q-0.572 0 -1.145 0.003c-3.608 0.017 -7.212 -0.082 -10.789 -0.587l-0.309 -0.042c-3.388 -0.464 -6.662 -1.151 -9.756 -2.647l-0.269 -0.129c-2.152 -1.05 -4.063 -2.431 -5.84 -4.03l-0.318 -0.285c-1.506 -1.424 -2.494 -3.229 -3.451 -5.044l-0.207 -0.393A311.698 311.698 0 0 1 148.7 183.016l-0.217 -0.423c-1.57 -3.066 -2.975 -6.196 -4.3 -9.375l-0.115 -0.276c-0.727 -1.748 -1.427 -3.506 -2.127 -5.264q-1.491 -0.03 -2.981 -0.057l-0.494 -0.009a711.785 711.785 0 0 0 -7.414 -0.089l-1.431 -0.011c-1.926 -0.015 -1.926 -0.015 -3.851 -0.027 -4.881 -0.027 -9.763 -0.103 -14.633 -0.458 -0.184 -0.551 0.058 -0.877 0.299 -1.372l0.138 -0.291a116.854 116.854 0 0 1 0.291 -0.609 163.908 163.908 0 0 0 0.442 -0.928q0.141 -0.296 0.282 -0.593l0.133 -0.279 0.127 -0.264 0.11 -0.23L113.085 162.218l0.14 -0.349C113.475 161.568 113.475 161.568 113.967 161.486q0.316 -0.005 0.632 -0.001l0.35 -0.004a97.877 97.877 0 0 1 1.156 0q0.407 -0.002 0.814 -0.005 0.866 -0.005 1.732 -0.005c0.9 0 1.801 -0.004 2.701 -0.01q1.555 -0.009 3.109 -0.014c2.019 -0.007 4.038 -0.028 6.057 -0.066l0.415 -0.008c2.719 -0.051 5.433 -0.173 8.148 -0.326 -0.492 -1.327 -1 -2.646 -1.535 -3.956l-0.218 -0.534c-1.584 -3.881 -3.204 -7.748 -4.824 -11.614a2629.549 2629.549 0 0 1 -1.022 -2.443c-1.629 -3.897 -3.265 -7.79 -4.921 -11.676l-0.175 -0.41q-0.415 -0.973 -0.831 -1.946C124.848 126.814 124.16 125.151 123.484 123.484c-0.324 0.324 -0.449 0.64 -0.639 1.059l-0.113 0.249q-0.185 0.41 -0.37 0.821l-0.261 0.579a722.444 722.444 0 0 0 -0.689 1.533 908.579 908.579 0 0 1 -0.407 0.905c-0.99 2.204 -1.96 4.414 -2.888 6.645a231.629 231.629 0 0 1 -1.434 3.368l-0.104 0.24 -0.428 0.983c-0.447 1.027 -0.892 2.054 -1.336 3.082l-0.131 0.303a1202.34 1202.34 0 0 0 -1.941 4.516c-1.043 2.439 -2.098 4.873 -3.157 7.306l-0.162 0.372 -0.161 0.369a1649.48 1649.48 0 0 0 -1.823 4.209l-0.375 0.868q-0.371 0.858 -0.743 1.715c-1.093 2.515 -2.174 5.036 -3.253 7.557l-0.407 0.95 -0.2 0.467q-0.552 1.289 -1.108 2.576C98.196 181.18 98.196 181.18 95.797 188.475l-0.087 0.275c-0.403 1.314 -0.266 2.659 0.278 3.906 0.983 1.823 3.289 2.516 5.155 3.095 0.718 0.195 1.431 0.303 2.169 0.386 0.728 0.082 1.434 0.202 2.145 0.382l0.478 0.121C106.326 196.794 106.326 196.794 106.716 197.314v1.95H75.78c0 -1.82 0 -1.82 0.52 -2.47 0.282 -0.169 0.282 -0.169 0.617 -0.301l0.415 -0.163c0.412 -0.15 0.828 -0.284 1.246 -0.417 2.266 -0.723 4.273 -1.509 6.041 -3.149l0.33 -0.299c4.169 -3.95 6.099 -11 8.304 -16.163q0.638 -1.492 1.285 -2.979c0.722 -1.66 1.434 -3.324 2.146 -4.988 1.255 -2.933 2.518 -5.862 3.791 -8.787a986.308 986.308 0 0 0 2.404 -5.578q0.486 -1.136 0.973 -2.272l0.192 -0.449c1.206 -2.818 2.414 -5.635 3.636 -8.446 0.411 -0.945 0.82 -1.891 1.229 -2.837l0.134 -0.309a1170.494 1170.494 0 0 0 1.956 -4.552c0.797 -1.862 1.603 -3.72 2.411 -5.578a1285.139 1285.139 0 0 0 3.035 -7.035 5225.953 5225.953 0 0 1 2.09 -4.881c0.837 -1.953 1.674 -3.905 2.522 -5.853 0.399 -0.918 0.794 -1.837 1.188 -2.758l0.155 -0.363q0.378 -0.885 0.756 -1.77A382.539 382.539 0 0 1 124.003 104.896l0.151 -0.349c0.151 -0.348 0.304 -0.696 0.456 -1.043l0.136 -0.315c0.375 -0.843 0.811 -1.709 1.507 -2.33 0.661 -0.23 1.267 -0.196 1.933 0"></path>
  <text x="50%" y="77%" text-anchor="middle" dominant-baseline="middle" font-family="Pacifico,Dancing Script, cursive" font-size="40" fill="white">Akhil Biswas</text>
</svg>
